<svg width="24" height="24" viewBox="0 0 24 24" fill="none" xmlns="http://www.w3.org/2000/svg">
<path d="M11.9023 5.98096C11.309 5.98096 10.729 6.1569 10.2356 6.48655C9.74229 6.81619 9.35777 7.28473 9.13071 7.83291C8.90364 8.38109 8.84423 8.98429 8.95999 9.56623C9.07574 10.1482 9.36147 10.6827 9.78102 11.1023C10.2006 11.5218 10.7351 11.8076 11.3171 11.9233C11.899 12.0391 12.5022 11.9797 13.0504 11.7526C13.5986 11.5255 14.0671 11.141 14.3968 10.6477C14.7264 10.1543 14.9023 9.5743 14.9023 8.98096C14.9014 8.18559 14.5851 7.42305 14.0227 6.86064C13.4603 6.29822 12.6977 5.98186 11.9023 5.98096ZM11.9023 10.481C11.6057 10.481 11.3157 10.393 11.069 10.2282C10.8223 10.0633 10.6301 9.82907 10.5165 9.55498C10.403 9.28089 10.3733 8.97929 10.4312 8.68832C10.489 8.39735 10.6319 8.13008 10.8417 7.9203C11.0515 7.71052 11.3187 7.56766 11.6097 7.50978C11.9007 7.4519 12.2023 7.48161 12.4764 7.59514C12.7505 7.70867 12.9847 7.90093 13.1495 8.1476C13.3144 8.39428 13.4023 8.68429 13.4023 8.98096C13.4019 9.37864 13.2437 9.75991 12.9625 10.0411C12.6813 10.3223 12.3 10.4805 11.9023 10.481Z" fill="#FDCA00"/>
<path d="M17.6676 3.21158C16.2423 1.7866 14.3396 0.940103 12.3269 0.835465C10.3141 0.730828 8.33391 1.37547 6.76849 2.64497C5.20307 3.91447 4.16338 5.71883 3.85009 7.70981C3.5368 9.7008 3.97212 11.7373 5.07202 13.4262L10.7395 22.1268C10.8657 22.3204 11.0381 22.4794 11.2412 22.5895C11.4444 22.6997 11.6718 22.7573 11.9029 22.7573C12.1339 22.7573 12.3613 22.6997 12.5645 22.5895C12.7676 22.4794 12.9401 22.3204 13.0662 22.1268L18.7339 13.4262C19.7545 11.8595 20.2055 9.98956 20.0114 8.12987C19.8172 6.27017 18.9898 4.53373 17.6676 3.21158ZM17.4771 12.6074L11.9029 21.1644L6.32865 12.6074C4.6224 9.98807 4.98835 6.48275 7.19879 4.27222C7.81653 3.65446 8.54991 3.16442 9.35704 2.83009C10.1642 2.49576 11.0292 2.32368 11.9029 2.32368C12.7765 2.32368 13.6416 2.49576 14.4487 2.83009C15.2559 3.16442 15.9892 3.65446 16.607 4.27222C18.8174 6.48275 19.1833 9.98807 17.4771 12.6074Z" fill="#FDCA00"/>
</svg>
